<mxfile host="65bd71144e">
    <diagram id="hrgf5zmKyDx4CTO5m5b5" name="PÃ¡gina-1">
        <mxGraphModel dx="1972" dy="652" grid="1" gridSize="10" guides="1" tooltips="1" connect="1" arrows="1" fold="1" page="1" pageScale="1" pageWidth="827" pageHeight="1169" math="0" shadow="0">
            <root>
                <mxCell id="0"/>
                <mxCell id="1" parent="0"/>
                <mxCell id="2" value="Modelagem de um E-COMMERCE" style="text;strokeColor=none;fillColor=none;html=1;fontSize=24;fontStyle=1;verticalAlign=middle;align=center;" parent="1" vertex="1">
                    <mxGeometry x="364" y="20" width="100" height="40" as="geometry"/>
                </mxCell>
                <mxCell id="7" value="Cliente" style="swimlane;fontStyle=0;childLayout=stackLayout;horizontal=1;startSize=26;fillColor=none;horizontalStack=0;resizeParent=1;resizeParentMax=0;resizeLast=0;collapsible=1;marginBottom=0;fontSize=14;" parent="1" vertex="1">
                    <mxGeometry x="-430" y="88" width="330" height="186" as="geometry"/>
                </mxCell>
                <mxCell id="43" value="&lt;div style=&quot;color: rgb(246 , 246 , 244) ; background-color: rgb(40 , 42 , 54) ; font-family: &amp;#34;consolas&amp;#34; , &amp;#34;courier new&amp;#34; , monospace ; line-height: 19px&quot;&gt;&lt;div&gt;idCliente &lt;span style=&quot;color: #f286c4&quot;&gt;int&lt;/span&gt; auto_increment &lt;span style=&quot;color: #f286c4&quot;&gt;primary&lt;/span&gt; &lt;span style=&quot;color: #f286c4&quot;&gt;key&lt;/span&gt;,&lt;/div&gt;&lt;div&gt;&amp;nbsp; &amp;nbsp; Nome &lt;span style=&quot;color: #f286c4&quot;&gt;VARCHAR&lt;/span&gt;(&lt;span style=&quot;color: #bf9eee&quot;&gt;25&lt;/span&gt;),&lt;/div&gt;&lt;div&gt;&amp;nbsp; &amp;nbsp; CPF &lt;span style=&quot;color: #f286c4&quot;&gt;char&lt;/span&gt;(&lt;span style=&quot;color: #bf9eee&quot;&gt;11&lt;/span&gt;),&lt;/div&gt;&lt;div&gt;&amp;nbsp; &amp;nbsp; CNPJ &lt;span style=&quot;color: #f286c4&quot;&gt;char&lt;/span&gt;(&lt;span style=&quot;color: #bf9eee&quot;&gt;15&lt;/span&gt;) , &amp;nbsp; &amp;nbsp;&lt;/div&gt;&lt;div&gt;&amp;nbsp; &amp;nbsp; Endereco &lt;span style=&quot;color: #f286c4&quot;&gt;VARCHAR&lt;/span&gt;(&lt;span style=&quot;color: #bf9eee&quot;&gt;25&lt;/span&gt;),&lt;/div&gt;&lt;div&gt;&amp;nbsp; &amp;nbsp; Identificacao &lt;span style=&quot;color: #f286c4&quot;&gt;VARCHAR&lt;/span&gt;(&lt;span style=&quot;color: #bf9eee&quot;&gt;10&lt;/span&gt;),&lt;/div&gt;&lt;div&gt;&amp;nbsp; &amp;nbsp; &lt;span style=&quot;color: #f286c4&quot;&gt;constraint&lt;/span&gt; unique_cpf_cliente &lt;span style=&quot;color: #f286c4&quot;&gt;unique&lt;/span&gt; (CPF),&lt;/div&gt;&lt;div&gt;&amp;nbsp; &amp;nbsp; &lt;span style=&quot;color: #f286c4&quot;&gt;constraint&lt;/span&gt; unique_cnpj_cliente &lt;span style=&quot;color: #f286c4&quot;&gt;unique&lt;/span&gt; (CNPJ)&lt;/div&gt;&lt;/div&gt;" style="text;html=1;align=left;verticalAlign=middle;resizable=0;points=[];autosize=1;strokeColor=none;fillColor=none;" vertex="1" parent="7">
                    <mxGeometry y="26" width="330" height="160" as="geometry"/>
                </mxCell>
                <mxCell id="11" value="" style="shape=sortShape;perimeter=rhombusPerimeter;whiteSpace=wrap;html=1;" parent="1" vertex="1">
                    <mxGeometry x="-20" y="148" width="30" height="30" as="geometry"/>
                </mxCell>
                <mxCell id="14" value="" style="endArrow=none;html=1;" parent="1" edge="1">
                    <mxGeometry width="50" height="50" relative="1" as="geometry">
                        <mxPoint x="520" y="430" as="sourcePoint"/>
                        <mxPoint x="570" y="380" as="targetPoint"/>
                    </mxGeometry>
                </mxCell>
                <mxCell id="15" value="" style="endArrow=none;html=1;" parent="1" edge="1">
                    <mxGeometry width="50" height="50" relative="1" as="geometry">
                        <mxPoint x="520" y="430" as="sourcePoint"/>
                        <mxPoint x="570" y="380" as="targetPoint"/>
                    </mxGeometry>
                </mxCell>
                <mxCell id="16" value="" style="endArrow=none;html=1;" parent="1" edge="1">
                    <mxGeometry width="50" height="50" relative="1" as="geometry">
                        <mxPoint x="520" y="430" as="sourcePoint"/>
                        <mxPoint x="570" y="380" as="targetPoint"/>
                    </mxGeometry>
                </mxCell>
                <mxCell id="17" value="" style="endArrow=none;html=1;" parent="1" edge="1">
                    <mxGeometry width="50" height="50" relative="1" as="geometry">
                        <mxPoint x="520" y="430" as="sourcePoint"/>
                        <mxPoint x="570" y="380" as="targetPoint"/>
                    </mxGeometry>
                </mxCell>
                <mxCell id="18" value="" style="endArrow=none;html=1;" parent="1" edge="1">
                    <mxGeometry width="50" height="50" relative="1" as="geometry">
                        <mxPoint x="520" y="430" as="sourcePoint"/>
                        <mxPoint x="570" y="380" as="targetPoint"/>
                    </mxGeometry>
                </mxCell>
                <mxCell id="19" value="" style="endArrow=none;html=1;" parent="1" edge="1">
                    <mxGeometry width="50" height="50" relative="1" as="geometry">
                        <mxPoint x="520" y="430" as="sourcePoint"/>
                        <mxPoint x="570" y="380" as="targetPoint"/>
                    </mxGeometry>
                </mxCell>
                <mxCell id="20" value="" style="endArrow=none;html=1;" parent="1" edge="1">
                    <mxGeometry width="50" height="50" relative="1" as="geometry">
                        <mxPoint x="520" y="430" as="sourcePoint"/>
                        <mxPoint x="570" y="380" as="targetPoint"/>
                    </mxGeometry>
                </mxCell>
                <mxCell id="21" value="" style="endArrow=none;html=1;" parent="1" edge="1">
                    <mxGeometry width="50" height="50" relative="1" as="geometry">
                        <mxPoint x="520" y="430" as="sourcePoint"/>
                        <mxPoint x="570" y="380" as="targetPoint"/>
                    </mxGeometry>
                </mxCell>
                <mxCell id="22" value="" style="endArrow=none;html=1;" parent="1" edge="1">
                    <mxGeometry width="50" height="50" relative="1" as="geometry">
                        <mxPoint x="520" y="430" as="sourcePoint"/>
                        <mxPoint x="570" y="380" as="targetPoint"/>
                    </mxGeometry>
                </mxCell>
                <mxCell id="35" value="Produto" style="swimlane;fontStyle=0;childLayout=stackLayout;horizontal=1;startSize=26;fillColor=none;horizontalStack=0;resizeParent=1;resizeParentMax=0;resizeLast=0;collapsible=1;marginBottom=0;fontSize=14;" parent="1" vertex="1">
                    <mxGeometry x="20" y="340" width="280" height="106" as="geometry"/>
                </mxCell>
                <mxCell id="44" value="&lt;div style=&quot;color: rgb(246 , 246 , 244) ; background-color: rgb(40 , 42 , 54) ; font-family: &amp;#34;consolas&amp;#34; , &amp;#34;courier new&amp;#34; , monospace ; line-height: 19px&quot;&gt;&lt;div&gt;idProduto &lt;span style=&quot;color: #f286c4&quot;&gt;int&lt;/span&gt; auto_increment &lt;span style=&quot;color: #f286c4&quot;&gt;primary&lt;/span&gt; &lt;span style=&quot;color: #f286c4&quot;&gt;key&lt;/span&gt;,&lt;/div&gt;&lt;div&gt;&amp;nbsp; &amp;nbsp; Descricao &lt;span style=&quot;color: #f286c4&quot;&gt;varchar&lt;/span&gt;(&lt;span style=&quot;color: #bf9eee&quot;&gt;15&lt;/span&gt;), &amp;nbsp; &amp;nbsp;&lt;/div&gt;&lt;div&gt;&amp;nbsp; &amp;nbsp; Categoria &lt;span style=&quot;color: #f286c4&quot;&gt;varchar&lt;/span&gt;(&lt;span style=&quot;color: #bf9eee&quot;&gt;30&lt;/span&gt;),&lt;/div&gt;&lt;div&gt;&amp;nbsp; &amp;nbsp; Valor &lt;span style=&quot;color: #f286c4&quot;&gt;float&lt;/span&gt; &lt;/div&gt;&lt;/div&gt;" style="text;html=1;align=left;verticalAlign=middle;resizable=0;points=[];autosize=1;strokeColor=none;fillColor=none;" vertex="1" parent="35">
                    <mxGeometry y="26" width="280" height="80" as="geometry"/>
                </mxCell>
                <mxCell id="45" value="Pedido" style="swimlane;fontStyle=0;childLayout=stackLayout;horizontal=1;startSize=30;horizontalStack=0;resizeParent=1;resizeParentMax=0;resizeLast=0;collapsible=1;marginBottom=0;fontSize=14;" vertex="1" parent="1">
                    <mxGeometry x="78" y="88" width="336" height="150" as="geometry"/>
                </mxCell>
                <mxCell id="55" value="&lt;div style=&quot;color: rgb(246 , 246 , 244) ; background-color: rgb(40 , 42 , 54) ; font-family: &amp;#34;consolas&amp;#34; , &amp;#34;courier new&amp;#34; , monospace ; line-height: 19px ; font-size: 12px&quot;&gt;&lt;div&gt;idPedido &lt;span style=&quot;color: #f286c4&quot;&gt;int&lt;/span&gt; auto_increment &lt;span style=&quot;color: #f286c4&quot;&gt;primary&lt;/span&gt; &lt;span style=&quot;color: #f286c4&quot;&gt;key&lt;/span&gt;,&lt;/div&gt;&lt;div&gt;&amp;nbsp; &amp;nbsp; StatusPedido &lt;span style=&quot;color: #f286c4&quot;&gt;VARCHAR&lt;/span&gt;(&lt;span style=&quot;color: #bf9eee&quot;&gt;10&lt;/span&gt;),&lt;/div&gt;&lt;div&gt;&amp;nbsp; &amp;nbsp; descricao &lt;span style=&quot;color: #f286c4&quot;&gt;VARCHAR&lt;/span&gt;(&lt;span style=&quot;color: #bf9eee&quot;&gt;30&lt;/span&gt;),&lt;/div&gt;&lt;div&gt;&amp;nbsp; &amp;nbsp; Frete &lt;span style=&quot;color: #f286c4&quot;&gt;FLOAT&lt;/span&gt;,&lt;/div&gt;&lt;div&gt;&amp;nbsp; &amp;nbsp; &lt;span style=&quot;color: #f286c4&quot;&gt;constraint&lt;/span&gt; fk_Cliente_idCliente &lt;span style=&quot;color: #f286c4&quot;&gt;foreign key&lt;/span&gt;&amp;nbsp;&lt;/div&gt;&lt;div&gt;&lt;span style=&quot;white-space: pre&quot;&gt;&#9;&lt;/span&gt;(idPedido) &lt;span style=&quot;color: #f286c4&quot;&gt;references&lt;/span&gt; Cliente(idCliente) &amp;nbsp;&lt;/div&gt;&lt;/div&gt;" style="text;html=1;align=left;verticalAlign=middle;resizable=0;points=[];autosize=1;strokeColor=none;fillColor=none;fontSize=14;" vertex="1" parent="45">
                    <mxGeometry y="30" width="336" height="120" as="geometry"/>
                </mxCell>
                <mxCell id="49" value="Pagamento_Boleto" style="swimlane;fontStyle=0;childLayout=stackLayout;horizontal=1;startSize=30;horizontalStack=0;resizeParent=1;resizeParentMax=0;resizeLast=0;collapsible=1;marginBottom=0;fontSize=14;" vertex="1" parent="1">
                    <mxGeometry x="364" y="316" width="376" height="130" as="geometry"/>
                </mxCell>
                <mxCell id="56" value="&lt;div style=&quot;color: rgb(246 , 246 , 244) ; background-color: rgb(40 , 42 , 54) ; font-family: &amp;#34;consolas&amp;#34; , &amp;#34;courier new&amp;#34; , monospace ; line-height: 19px ; font-size: 12px&quot;&gt;&lt;div&gt;idPagamento_Boleto &lt;span style=&quot;color: #f286c4&quot;&gt;int&lt;/span&gt; auto_increment &lt;span style=&quot;color: #f286c4&quot;&gt;primary&lt;/span&gt; &lt;span style=&quot;color: #f286c4&quot;&gt;key&lt;/span&gt;,&lt;/div&gt;&lt;div&gt;&amp;nbsp; &amp;nbsp; Data_Vencimento &lt;span style=&quot;color: #f286c4&quot;&gt;DATE&lt;/span&gt;,&lt;/div&gt;&lt;div&gt;&amp;nbsp; &amp;nbsp; Valor &lt;span style=&quot;color: #f286c4&quot;&gt;FLOAT&lt;/span&gt;,&lt;/div&gt;&lt;div&gt;&amp;nbsp; &amp;nbsp; &lt;span style=&quot;color: #f286c4&quot;&gt;constraint&lt;/span&gt; fk_Pedido_Cliente_idCliente &lt;span style=&quot;color: #f286c4&quot;&gt;foreign key&lt;/span&gt;&amp;nbsp;&lt;/div&gt;&lt;div&gt;&lt;span style=&quot;white-space: pre&quot;&gt;&#9;&lt;/span&gt;(idPagamento_Boleto) &lt;span style=&quot;color: #f286c4&quot;&gt;references&lt;/span&gt; Pedido(idPedido)&lt;/div&gt;&lt;/div&gt;" style="text;html=1;align=left;verticalAlign=middle;resizable=0;points=[];autosize=1;strokeColor=none;fillColor=none;fontSize=14;" vertex="1" parent="49">
                    <mxGeometry y="30" width="376" height="100" as="geometry"/>
                </mxCell>
                <mxCell id="50" value="Pagamento_Cartao" style="swimlane;fontStyle=0;childLayout=stackLayout;horizontal=1;startSize=30;horizontalStack=0;resizeParent=1;resizeParentMax=0;resizeLast=0;collapsible=1;marginBottom=0;fontSize=14;" vertex="1" parent="1">
                    <mxGeometry x="290" y="510" width="340" height="130" as="geometry"/>
                </mxCell>
                <mxCell id="57" value="&lt;div style=&quot;color: rgb(246 , 246 , 244) ; background-color: rgb(40 , 42 , 54) ; font-family: &amp;#34;consolas&amp;#34; , &amp;#34;courier new&amp;#34; , monospace ; line-height: 19px&quot;&gt;&lt;div&gt;idPagamento_Cartao &lt;span style=&quot;color: #f286c4&quot;&gt;int&lt;/span&gt; auto_increment &lt;span style=&quot;color: #f286c4&quot;&gt;primary&lt;/span&gt; &lt;span style=&quot;color: #f286c4&quot;&gt;key&lt;/span&gt;,&lt;/div&gt;&lt;div&gt;&amp;nbsp; &amp;nbsp; Numero_Cartao &lt;span style=&quot;color: #f286c4&quot;&gt;varchar&lt;/span&gt;(&lt;span style=&quot;color: #bf9eee&quot;&gt;20&lt;/span&gt;),&lt;/div&gt;&lt;div&gt;&amp;nbsp; &amp;nbsp; CVV_Cartao &lt;span style=&quot;color: #f286c4&quot;&gt;VARCHAR&lt;/span&gt;(&lt;span style=&quot;color: #bf9eee&quot;&gt;5&lt;/span&gt;),&lt;/div&gt;&lt;div&gt;&amp;nbsp; &amp;nbsp; Nome &lt;span style=&quot;color: #f286c4&quot;&gt;VARCHAR&lt;/span&gt;(&lt;span style=&quot;color: #bf9eee&quot;&gt;30&lt;/span&gt;),&lt;/div&gt;&lt;div&gt;&amp;nbsp; &amp;nbsp; Valor &lt;span style=&quot;color: #f286c4&quot;&gt;FLOAT&lt;/span&gt; &amp;nbsp; &lt;/div&gt;&lt;/div&gt;" style="text;html=1;align=left;verticalAlign=middle;resizable=0;points=[];autosize=1;strokeColor=none;fillColor=none;fontSize=12;" vertex="1" parent="50">
                    <mxGeometry y="30" width="340" height="100" as="geometry"/>
                </mxCell>
                <mxCell id="51" value="Estoque" style="swimlane;fontStyle=0;childLayout=stackLayout;horizontal=1;startSize=30;horizontalStack=0;resizeParent=1;resizeParentMax=0;resizeLast=0;collapsible=1;marginBottom=0;fontSize=14;" vertex="1" parent="1">
                    <mxGeometry x="-510" y="510" width="330" height="130" as="geometry"/>
                </mxCell>
                <mxCell id="59" value="&lt;div style=&quot;color: rgb(246 , 246 , 244) ; background-color: rgb(40 , 42 , 54) ; font-family: &amp;#34;consolas&amp;#34; , &amp;#34;courier new&amp;#34; , monospace ; line-height: 19px&quot;&gt;&lt;div&gt;idEstoque &lt;span style=&quot;color: #f286c4&quot;&gt;int&lt;/span&gt; auto_increment &lt;span style=&quot;color: #f286c4&quot;&gt;primary&lt;/span&gt; &lt;span style=&quot;color: #f286c4&quot;&gt;key&lt;/span&gt;,&lt;/div&gt;&lt;div&gt;&amp;nbsp; &amp;nbsp; Localizacao &lt;span style=&quot;color: #f286c4&quot;&gt;VARCHAR&lt;/span&gt;(&lt;span style=&quot;color: #bf9eee&quot;&gt;90&lt;/span&gt;),&lt;/div&gt;&lt;div&gt;&amp;nbsp; &amp;nbsp; Quantidade &lt;span style=&quot;color: #f286c4&quot;&gt;int&lt;/span&gt; &lt;span style=&quot;color: #f286c4&quot;&gt;default&lt;/span&gt; &lt;span style=&quot;color: #bf9eee&quot;&gt;0&lt;/span&gt;,&lt;/div&gt;&lt;div&gt;&amp;nbsp; &amp;nbsp; &lt;span style=&quot;color: #f286c4&quot;&gt;constraint&lt;/span&gt; fk_Estoque_idEstoque &lt;span style=&quot;color: #f286c4&quot;&gt;foreign key&lt;/span&gt;&amp;nbsp;&lt;/div&gt;&lt;div&gt;&lt;span style=&quot;white-space: pre&quot;&gt;&#9;&lt;/span&gt;(idEstoque) &lt;span style=&quot;color: #f286c4&quot;&gt;references&lt;/span&gt; Produto(idProduto)&lt;/div&gt;&lt;/div&gt;" style="text;html=1;align=left;verticalAlign=middle;resizable=0;points=[];autosize=1;strokeColor=none;fillColor=none;fontSize=12;" vertex="1" parent="51">
                    <mxGeometry y="30" width="330" height="100" as="geometry"/>
                </mxCell>
                <mxCell id="52" value="Entrega" style="swimlane;fontStyle=0;childLayout=stackLayout;horizontal=1;startSize=30;horizontalStack=0;resizeParent=1;resizeParentMax=0;resizeLast=0;collapsible=1;marginBottom=0;fontSize=14;" vertex="1" parent="1">
                    <mxGeometry x="690" y="570" width="280" height="110" as="geometry"/>
                </mxCell>
                <mxCell id="58" value="&lt;div style=&quot;color: rgb(246 , 246 , 244) ; background-color: rgb(40 , 42 , 54) ; font-family: &amp;#34;consolas&amp;#34; , &amp;#34;courier new&amp;#34; , monospace ; line-height: 19px&quot;&gt;&lt;div&gt;idEntrega &lt;span style=&quot;color: #f286c4&quot;&gt;int&lt;/span&gt; auto_increment &lt;span style=&quot;color: #f286c4&quot;&gt;primary&lt;/span&gt; &lt;span style=&quot;color: #f286c4&quot;&gt;key&lt;/span&gt;,&lt;/div&gt;&lt;div&gt;&amp;nbsp; &amp;nbsp; Codigo_Rastreio &lt;span style=&quot;color: #f286c4&quot;&gt;VARCHAR&lt;/span&gt;(&lt;span style=&quot;color: #bf9eee&quot;&gt;15&lt;/span&gt;),&lt;/div&gt;&lt;div&gt;&amp;nbsp; &amp;nbsp; &lt;span style=&quot;color: #f286c4&quot;&gt;Status&lt;/span&gt; &lt;span style=&quot;color: #f286c4&quot;&gt;VARCHAR&lt;/span&gt;(&lt;span style=&quot;color: #bf9eee&quot;&gt;10&lt;/span&gt;),&lt;/div&gt;&lt;div&gt;&amp;nbsp; &amp;nbsp; Data_Entrega &lt;span style=&quot;color: #f286c4&quot;&gt;DATE&lt;/span&gt;&lt;/div&gt;&lt;/div&gt;" style="text;html=1;align=left;verticalAlign=middle;resizable=0;points=[];autosize=1;strokeColor=none;fillColor=none;fontSize=12;" vertex="1" parent="52">
                    <mxGeometry y="30" width="280" height="80" as="geometry"/>
                </mxCell>
                <mxCell id="53" value="Fornecedor" style="swimlane;fontStyle=0;childLayout=stackLayout;horizontal=1;startSize=30;horizontalStack=0;resizeParent=1;resizeParentMax=0;resizeLast=0;collapsible=1;marginBottom=0;fontSize=14;" vertex="1" parent="1">
                    <mxGeometry x="-500" y="770" width="370" height="130" as="geometry"/>
                </mxCell>
                <mxCell id="60" value="&lt;div style=&quot;color: rgb(246 , 246 , 244) ; background-color: rgb(40 , 42 , 54) ; font-family: &amp;#34;consolas&amp;#34; , &amp;#34;courier new&amp;#34; , monospace ; line-height: 19px&quot;&gt;&lt;div&gt;idFornecedor &lt;span style=&quot;color: #f286c4&quot;&gt;int&lt;/span&gt; auto_increment &lt;span style=&quot;color: #f286c4&quot;&gt;primary&lt;/span&gt; &lt;span style=&quot;color: #f286c4&quot;&gt;key&lt;/span&gt;,&lt;/div&gt;&lt;div&gt;&amp;nbsp; &amp;nbsp; CNPJ &lt;span style=&quot;color: #f286c4&quot;&gt;CHAR&lt;/span&gt;(&lt;span style=&quot;color: #bf9eee&quot;&gt;11&lt;/span&gt;),&lt;/div&gt;&lt;div&gt;&amp;nbsp; &amp;nbsp; Razao_Social &lt;span style=&quot;color: #f286c4&quot;&gt;VARCHAR&lt;/span&gt;(&lt;span style=&quot;color: #bf9eee&quot;&gt;35&lt;/span&gt;),&lt;/div&gt;&lt;div&gt;&amp;nbsp; &amp;nbsp; &lt;span style=&quot;color: #f286c4&quot;&gt;constraint&lt;/span&gt; fk_Fornecedor_idFornecedor &lt;span style=&quot;color: #f286c4&quot;&gt;foreign key&lt;/span&gt;&amp;nbsp;&lt;/div&gt;&lt;div&gt;&lt;span style=&quot;white-space: pre&quot;&gt;&#9;&lt;/span&gt;(idFornecedor) &lt;span style=&quot;color: #f286c4&quot;&gt;references&lt;/span&gt; Produto(idProduto)&lt;/div&gt;&lt;/div&gt;" style="text;html=1;align=left;verticalAlign=middle;resizable=0;points=[];autosize=1;strokeColor=none;fillColor=none;fontSize=12;" vertex="1" parent="53">
                    <mxGeometry y="30" width="370" height="100" as="geometry"/>
                </mxCell>
                <mxCell id="54" value="Terceiro_Vendedor" style="swimlane;fontStyle=0;childLayout=stackLayout;horizontal=1;startSize=30;horizontalStack=0;resizeParent=1;resizeParentMax=0;resizeLast=0;collapsible=1;marginBottom=0;fontSize=14;" vertex="1" parent="1">
                    <mxGeometry x="30" y="800" width="456" height="130" as="geometry"/>
                </mxCell>
                <mxCell id="61" value="&lt;div style=&quot;color: rgb(246 , 246 , 244) ; background-color: rgb(40 , 42 , 54) ; font-family: &amp;#34;consolas&amp;#34; , &amp;#34;courier new&amp;#34; , monospace ; line-height: 19px&quot;&gt;&lt;div&gt;idTerceiro_Vendedor &lt;span style=&quot;color: #f286c4&quot;&gt;int&lt;/span&gt; auto_increment &lt;span style=&quot;color: #f286c4&quot;&gt;primary&lt;/span&gt; &lt;span style=&quot;color: #f286c4&quot;&gt;key&lt;/span&gt;,&lt;/div&gt;&lt;div&gt;&amp;nbsp; &amp;nbsp; Localizacao &lt;span style=&quot;color: #f286c4&quot;&gt;VARCHAR&lt;/span&gt;(&lt;span style=&quot;color: #bf9eee&quot;&gt;35&lt;/span&gt;),&lt;/div&gt;&lt;div&gt;&amp;nbsp; &amp;nbsp; Razao_Social &lt;span style=&quot;color: #f286c4&quot;&gt;VARCHAR&lt;/span&gt;(&lt;span style=&quot;color: #bf9eee&quot;&gt;40&lt;/span&gt;),&lt;/div&gt;&lt;div&gt;&amp;nbsp; &amp;nbsp; &lt;span style=&quot;color: #f286c4&quot;&gt;constraint&lt;/span&gt; fk_Terceiro_Vendedor_idTerceiro_Vendedor &lt;span style=&quot;color: #f286c4&quot;&gt;foreign key&lt;/span&gt;&amp;nbsp;&lt;/div&gt;&lt;div&gt;&lt;span style=&quot;white-space: pre&quot;&gt;&#9;&lt;/span&gt;(idTerceiro_Vendedor) &lt;span style=&quot;color: #f286c4&quot;&gt;references&lt;/span&gt; Produto(idProduto) &lt;/div&gt;&lt;/div&gt;" style="text;html=1;align=left;verticalAlign=middle;resizable=0;points=[];autosize=1;strokeColor=none;fillColor=none;fontSize=12;" vertex="1" parent="54">
                    <mxGeometry y="30" width="456" height="100" as="geometry"/>
                </mxCell>
                <mxCell id="64" value="" style="endArrow=none;html=1;fontSize=12;entryX=1.001;entryY=0.316;entryDx=0;entryDy=0;entryPerimeter=0;exitX=0;exitY=0.5;exitDx=0;exitDy=0;" edge="1" parent="1" source="11" target="43">
                    <mxGeometry width="50" height="50" relative="1" as="geometry">
                        <mxPoint x="50" y="380" as="sourcePoint"/>
                        <mxPoint x="100" y="330" as="targetPoint"/>
                    </mxGeometry>
                </mxCell>
                <mxCell id="66" value="" style="endArrow=none;html=1;fontSize=12;exitX=1;exitY=0.5;exitDx=0;exitDy=0;entryX=0.004;entryY=0.358;entryDx=0;entryDy=0;entryPerimeter=0;" edge="1" parent="1" source="11" target="55">
                    <mxGeometry width="50" height="50" relative="1" as="geometry">
                        <mxPoint x="-10" y="220" as="sourcePoint"/>
                        <mxPoint x="40" y="170" as="targetPoint"/>
                    </mxGeometry>
                </mxCell>
                <mxCell id="67" value="1" style="text;html=1;strokeColor=none;fillColor=none;align=center;verticalAlign=middle;whiteSpace=wrap;rounded=0;fontSize=12;" vertex="1" parent="1">
                    <mxGeometry x="-110" y="140" width="60" height="30" as="geometry"/>
                </mxCell>
                <mxCell id="68" value="1 .. *" style="text;html=1;strokeColor=none;fillColor=none;align=center;verticalAlign=middle;whiteSpace=wrap;rounded=0;fontSize=12;" vertex="1" parent="1">
                    <mxGeometry x="30" y="130" width="60" height="30" as="geometry"/>
                </mxCell>
            </root>
        </mxGraphModel>
    </diagram>
</mxfile>